<svg width="32" height="28" viewBox="0 0 32 28" fill="none" xmlns="http://www.w3.org/2000/svg">
<path d="M0.84523 13.3983L22.5309 0.740637C23.0166 0.458622 23.6384 0.485622 24.0931 0.81864C26.1534 2.32171 27.9941 3.84579 29.2222 5.12686C29.2222 5.12686 30.2802 6.15291 30.7381 6.80394C31.4774 7.69198 31.8332 8.85304 31.8332 9.9811C31.8332 11.2472 31.4434 12.4442 30.6669 13.4013C30.4906 13.5723 29.8193 14.3253 29.1851 14.9403C25.4852 18.7685 15.8272 25.0929 10.7476 27.01C10.0083 27.319 8.03461 27.964 7.01065 28C6.02381 28 5.071 27.796 4.15531 27.349C3.02927 26.7339 2.14761 25.7799 1.65264 24.6488C1.33401 23.8628 0.842137 21.5047 0.842137 21.4357C0.523502 19.7526 0.2853 17.3885 0.167746 14.6283C0.146091 14.1333 0.409042 13.6533 0.84523 13.3983Z" fill="#FCBDEB"/>
</svg>
